<svg width="32" height="32" xmlns="http://www.w3.org/2000/svg">

 <g>
  <title>background</title>
  <rect fill="none" id="canvas_background" height="402" width="582" y="-1" x="-1"/>
 </g>
 <g>
  <title>Layer 1</title>
  <g id="svg_1">
   <g id="svg_2">
    <path id="svg_3" fill="#6a1b9a" d="m27.586,12.712c-0.926,-2.461 -3.302,-4.212 -6.086,-4.212c-0.641,0 -1.26,0.093 -1.846,0.266c-1.586,-2.561 -4.421,-4.266 -7.654,-4.266c-4.904,0 -8.894,3.924 -8.998,8.803c-1.795,1.039 -3.002,2.98 -3.002,5.197c0,3.312 2.688,6 6,6l6,0l0,-2l-6.003,0c-2.203,0 -3.997,-1.791 -3.997,-4c0,-1.893 1.317,-3.482 3.087,-3.896c-0.058,-0.359 -0.087,-0.728 -0.087,-1.104c0,-3.866 3.134,-7 7,-7c3.162,0 5.834,2.097 6.702,4.975c0.769,-0.611 1.739,-0.975 2.798,-0.975c1.059,0 4.225,1.75 4.473,4l0.03,0c2.203,0 3.997,1.791 3.997,4c0,2.205 -1.789,4 -3.997,4l-6.003,0l0,2l6,0c3.312,0 6,-2.693 6,-6c0,-2.765 -1.87,-5.093 -4.414,-5.788z"/>
    <polygon id="svg_4" fill="#6a1b9a" points="16,13.5 11,19.5 14,19.5 14,27.5 18,27.5 18,19.5 21,19.5   "/>
   </g>
  </g>
  <g id="svg_5"/>
  <g id="svg_6"/>
  <g id="svg_7"/>
  <g id="svg_8"/>
  <g id="svg_9"/>
  <g id="svg_10"/>
  <g id="svg_11"/>
  <g id="svg_12"/>
  <g id="svg_13"/>
  <g id="svg_14"/>
  <g id="svg_15"/>
  <g id="svg_16"/>
  <g id="svg_17"/>
  <g id="svg_18"/>
  <g id="svg_19"/>
 </g>
</svg>